<svg width="18" height="19" viewBox="0 0 18 19" fill="none" xmlns="http://www.w3.org/2000/svg">
<g id="R$">
<path id="Union" fill-rule="evenodd" clip-rule="evenodd" d="M15.475 5.35133L9.33669 1.78709C9.12854 1.66623 8.87209 1.66623 8.66394 1.78709L2.52561 5.35133C2.31746 5.47219 2.18923 5.69555 2.18923 5.93727V13.0658C2.18923 13.3075 2.31746 13.5308 2.52561 13.6517L8.66394 17.2159C8.87209 17.3368 9.12854 17.3368 9.33669 17.2159L15.475 13.6517C15.6832 13.5308 15.8114 13.3075 15.8114 13.0658V5.93727C15.8114 5.69555 15.6832 5.47219 15.475 5.35133ZM10.0094 0.615199C9.38499 0.252616 8.61564 0.252616 7.9912 0.615199L1.85286 4.17944C1.22842 4.54202 0.84375 5.21211 0.84375 5.93727V13.0658C0.84375 13.7909 1.22842 14.461 1.85286 14.8236L7.9912 18.3878C8.61564 18.7504 9.38499 18.7504 10.0094 18.3878L16.1478 14.8236C16.7722 14.461 17.1569 13.7909 17.1569 13.0658V5.93727C17.1569 5.2121 16.7722 4.54202 16.1478 4.17944L10.0094 0.615199Z" fill="#818EBB"/>
<path id="Subtract" fill-rule="evenodd" clip-rule="evenodd" d="M4.5 12.4412H6.08537V9.94733C6.28393 9.89568 6.97436 9.90085 6.97436 10.3346V12.4412H8.53944V9.88494C8.49362 9.70419 8.24619 9.34657 7.62302 9.36206C7.92849 9.32979 8.53944 9.10643 8.53944 8.47123V7.50294C8.51653 7.12208 8.18204 6.36035 7.02734 6.36035H4.5V12.4412ZM6.0578 7.36728V8.81972H6.67639C6.82913 8.79389 7.1346 8.61056 7.1346 8.08381C7.1346 7.55706 6.82913 7.38664 6.67639 7.36728H6.0578Z" fill="#818EBB"/>
<path id="Vector" d="M11.8033 8.90312C11.2521 8.65773 10.7317 8.42611 10.7338 8.16255C10.7354 7.98138 11.015 7.79615 11.4813 7.79615C11.4854 7.79615 11.4894 7.79615 11.4935 7.79615C12.1106 7.80038 12.7081 8.29539 12.8229 8.41764L12.9377 8.53989L14 7.56752L13.886 7.46132C13.7069 7.29479 13.0804 6.75339 12.2669 6.51436L12.275 5.51006L10.7902 5.5L10.7823 6.48084C9.85365 6.70805 9.23481 7.37082 9.22846 8.16167C9.22 9.20266 10.3185 9.69326 11.2012 10.0874C11.7504 10.3326 12.269 10.5644 12.2669 10.8281C12.2662 10.9195 12.2019 11.0087 12.086 11.0797C11.9423 11.1675 11.7367 11.2157 11.5071 11.2134C10.8048 11.2086 10.195 10.5806 10.189 10.5741L10.0752 10.4504L9 11.4222L9.11788 11.532C9.29885 11.7006 9.93019 12.248 10.7337 12.4855L10.7256 13.4899L12.2102 13.5L12.2181 12.5179C13.1529 12.2808 13.776 11.6144 13.7823 10.8288C13.791 9.78781 12.6888 9.29722 11.8033 8.90312Z" fill="#818EBB"/>
</g>
</svg>
